<?xml version="1.0" ?><!DOCTYPE svg  PUBLIC '-//W3C//DTD SVG 1.1//EN'  'http://www.w3.org/Graphics/SVG/1.1/DTD/svg11.dtd'><svg enable-background="new 0 0 512 512" height="512px" id="Toothbrush" version="1.1" viewBox="0 0 512 512" width="512px" xml:space="preserve" xmlns="http://www.w3.org/2000/svg" xmlns:xlink="http://www.w3.org/1999/xlink"><g><path d="M446.892,19.716c-0.009-0.146-0.002-0.293-0.022-0.437c-0.034-0.231-0.1-0.45-0.163-0.67   c-0.028-0.099-0.043-0.202-0.077-0.298c-0.109-0.303-0.247-0.592-0.41-0.865c-0.007-0.012-0.01-0.024-0.017-0.035   c-0.173-0.285-0.376-0.55-0.601-0.794c-0.008-0.008-0.012-0.018-0.02-0.026c-0.066-0.072-0.148-0.124-0.219-0.191   c-0.163-0.156-0.326-0.312-0.51-0.445c-0.104-0.076-0.219-0.132-0.328-0.199c-0.174-0.107-0.346-0.215-0.533-0.3   c-0.129-0.059-0.264-0.097-0.396-0.144c-0.181-0.064-0.357-0.131-0.547-0.174c-0.156-0.036-0.316-0.05-0.477-0.071   c-0.138-0.019-0.269-0.055-0.41-0.062c-0.041-0.002-0.079,0.007-0.12,0.006c-0.04-0.001-0.078-0.012-0.118-0.012h-155.46   c-0.04,0-0.078,0.011-0.117,0.012c-0.041,0.001-0.08-0.008-0.121-0.006c-0.141,0.007-0.272,0.043-0.41,0.062   c-0.16,0.021-0.32,0.035-0.477,0.071c-0.188,0.043-0.366,0.11-0.546,0.174c-0.133,0.047-0.268,0.085-0.396,0.144   c-0.188,0.085-0.359,0.193-0.533,0.3c-0.109,0.067-0.225,0.123-0.328,0.199c-0.184,0.133-0.348,0.288-0.511,0.444   c-0.07,0.067-0.152,0.119-0.219,0.191c-0.007,0.008-0.012,0.018-0.019,0.026c-0.226,0.244-0.428,0.509-0.601,0.794   c-0.007,0.01-0.01,0.021-0.016,0.032c-0.164,0.274-0.302,0.565-0.411,0.869c-0.035,0.096-0.049,0.198-0.077,0.296   c-0.064,0.221-0.13,0.44-0.163,0.672c-0.021,0.143-0.015,0.29-0.023,0.435c-0.01,0.175-0.035,0.345-0.027,0.524l19.38,405.549   c0.599,12.538,10.66,22.442,23.145,23.043V492c0,2.762,2.238,5,5,5h70.39c2.762,0,5-2.238,5-5v-43.169   c12.491-0.6,22.559-10.505,23.154-23.042l1.55-32.37l17.83-373.18C446.928,20.061,446.901,19.89,446.892,19.716z M436.563,25   l-1.39,19.84H293.218L291.827,25H436.563z M394.385,462.93h-60.39v-14.07h60.39V462.93z M333.995,487v-14.07h60.39V487H333.995z    M403.186,438.859h-3.801h-70.39h-3.8c-7.688,0-13.994-5.951-14.356-13.549l-1.298-27.17h109.311l-1.301,27.172   C417.189,432.909,410.879,438.859,403.186,438.859z M419.33,388.141H309.063L293.136,54.84h142.119L419.33,388.141z"/><path d="M162.895,50h-10V40c0-2.761-2.238-5-5-5s-5,2.239-5,5v10h-10c-2.762,0-5,2.239-5,5s2.238,5,5,5h10v10c0,2.761,2.238,5,5,5   s5-2.239,5-5V60h10c2.762,0,5-2.239,5-5S165.656,50,162.895,50z"/><path d="M250.075,119.876h-10v-10c0-2.761-2.238-5-5-5s-5,2.239-5,5v10h-10c-2.762,0-5,2.239-5,5s2.238,5,5,5h10v10   c0,2.761,2.238,5,5,5s5-2.239,5-5v-10h10c2.762,0,5-2.239,5-5S252.837,119.876,250.075,119.876z"/><path d="M273.453,236.574c-0.948-1.063-2.306-1.671-3.73-1.671H155.602l-2.45-6.285l51.78-20.189   c2.572-1.003,3.845-3.902,2.842-6.475l-32.904-84.393c0,0,0-0.001-0.001-0.001c0,0,0-0.001-0.001-0.001l-6.58-16.877   c-0.481-1.235-1.435-2.229-2.648-2.762c-1.214-0.533-2.589-0.562-3.826-0.08l-51.781,20.189l-0.298-0.765   c-4.63-11.875-18.059-17.771-29.935-13.14s-17.771,18.06-13.14,29.935l39.319,100.844h-14.09c-1.425,0-2.782,0.608-3.73,1.671   c-0.949,1.063-1.399,2.48-1.237,3.896l25.754,225.416c0.001,0.006,0,0.012,0.001,0.018l3.037,26.575   c0.036,0.315,0.102,0.621,0.192,0.915c0.638,2.057,2.552,3.517,4.775,3.517h120.25c2.542,0,4.679-1.906,4.968-4.432L274.69,240.47   C274.853,239.054,274.402,237.637,273.453,236.574z M160.787,108.971l2.948,7.562l-23.562,9.187   c-2.572,1.003-3.845,3.902-2.842,6.475c0.771,1.976,2.659,3.185,4.659,3.185c0.604,0,1.219-0.11,1.815-0.343l23.562-9.187   l2.948,7.563l-37.68,14.692c-2.573,1.003-3.846,3.902-2.843,6.475c0.771,1.976,2.659,3.185,4.659,3.185   c0.604,0,1.219-0.11,1.815-0.343l37.681-14.692l2.949,7.563l-17.427,6.794c-2.572,1.003-3.845,3.902-2.842,6.475   c0.771,1.976,2.659,3.185,4.659,3.185c0.604,0,1.219-0.11,1.815-0.343l17.426-6.794l2.948,7.563l-23.562,9.187   c-2.571,1.003-3.845,3.902-2.842,6.475c0.771,1.976,2.659,3.185,4.659,3.185c0.604,0,1.219-0.11,1.815-0.343l23.562-9.187   l2.949,7.563l-14.895,5.807c-2.572,1.003-3.845,3.902-2.842,6.475c0.771,1.976,2.659,3.185,4.659,3.185   c0.604,0,1.219-0.11,1.815-0.343l14.894-5.807l2.948,7.562l-47.122,18.374l-22.211-56.966l-13.644-34.99L160.787,108.971z    M75.976,130.425c-2.627-6.738,0.718-14.357,7.456-16.985c1.561-0.608,3.167-0.896,4.749-0.896c5.25,0,10.217,3.174,12.236,8.352   l2.114,5.421c0,0.001,0,0.001,0,0.001l9.363,24.013l32.975,84.57h-28.157L75.976,130.425z M236.47,486.91H125.142l-0.121-1.059   l-1.772-15.516h115.115L236.47,486.91z M223.414,446.926c-1.408,3.208-3.981,5.676-7.246,6.949   c-6.738,2.625-14.356-0.719-16.985-7.457l-78.571-201.516h28.156l74.856,191.986C224.896,440.153,224.822,443.718,223.414,446.926z    M109.878,244.902l79.988,205.148c1.669,4.281,4.49,7.771,7.96,10.285h-75.721L97.492,244.902H109.878z M239.506,460.336H224.99   c3.284-2.381,5.907-5.579,7.58-9.391c2.482-5.654,2.613-11.936,0.37-17.689l-73.439-188.354h104.618L239.506,460.336z"/></g></svg>