<?xml version="1.0" ?><svg viewBox="0 0 22.596 22.59" xmlns="http://www.w3.org/2000/svg"><defs><style>.cls-1{fill:#1a171b;}</style></defs><g data-name="Layer 2" id="Layer_2"><g data-name="Layer 1" id="Layer_1-2"><path class="cls-1" d="M3.629,9.584a.342.342,0,1,1-.673.125c-.294-2.14-.733-4.716,1.266-6.271A3.613,3.613,0,0,1,7.279,2.95a.342.342,0,0,1-.178.661,2.956,2.956,0,0,0-2.5.4C2.951,5.3,3.371,7.754,3.629,9.584Zm9.4-.2a.343.343,0,0,0,0,.685h.913a.343.343,0,0,0,0-.685Zm3.2,0a.343.343,0,0,0,0,.685c.448-.046,1.248.181,1.255-.342S16.676,9.435,16.227,9.389ZM15.086,10.53c-.523.006-.3.806-.343,1.255a.344.344,0,0,0,.343.343c.523-.007.3-.807.342-1.256A.342.342,0,0,0,15.086,10.53Zm.342-2.852a.342.342,0,0,0-.684,0c.045.447-.182,1.248.342,1.254S15.382,8.125,15.428,7.678Zm6.293-3.641a.341.341,0,0,0-.223.429,8.985,8.985,0,0,1,.387,3.374c-.429,5.26-2.349,10.543-5.011,13.785a.751.751,0,0,1-1.332-.457c-.471-5.143-2.572-8.6-4.24-8.6s-3.769,3.456-4.239,8.6a.751.751,0,0,1-1.331.457C2.827,18.294-1.73,6.772,2.29,2.293c3.893-4.161,9.914.982,10.965,2.219.3.334.809-.146.5-.464A15.671,15.671,0,0,0,12.031,2.5c.951-.683,3.691-2.4,6.231-1.571a.339.339,0,0,0,.431-.219.343.343,0,0,0-.219-.432c-3.04-.993-6.176,1.153-7.017,1.793C5.908-2.238-.557.589.038,7.9.478,13.289,2.457,18.717,5.2,22.061A1.407,1.407,0,0,0,6.3,22.59a1.474,1.474,0,0,0,1.45-1.358c.445-4.869,2.4-7.978,3.557-7.978s3.113,3.108,3.558,7.977a1.445,1.445,0,0,0,2.543.829c2.745-3.345,4.724-8.772,5.164-14.164a9.693,9.693,0,0,0-.416-3.637A.341.341,0,0,0,21.721,4.037ZM17.8,2.4c.006.524.806.3,1.255.343A.343.343,0,0,0,19.4,2.4c-.006-.523-.807-.3-1.255-.342A.342.342,0,0,0,17.8,2.4Zm3.537.343c.449-.046,1.248.181,1.255-.343s-.807-.3-1.255-.342A.343.343,0,0,0,21.341,2.739ZM20.2,4.792c.523-.006.3-.807.342-1.255A.342.342,0,0,0,20.2,3.2c-.523.006-.3.807-.342,1.255A.342.342,0,0,0,20.2,4.792Zm0-3.195c.523-.006.3-.8.342-1.255A.342.342,0,0,0,20.2,0c-.523.006-.3.807-.342,1.255A.342.342,0,0,0,20.2,1.6Z" id="dentist"/></g></g></svg>